<svg width="34" height="34" viewBox="0 0 34 34" fill="none" xmlns="http://www.w3.org/2000/svg">
<path d="M30.8279 0.000200573C30.492 0.000200573 30.1404 0.11307 29.8846 0.368993L29.352 0.943837L29.1053 0.739098C29.0445 0.675498 28.9713 0.624883 28.8904 0.590305C28.8095 0.555726 28.7224 0.5379 28.6343 0.5379C28.5463 0.5379 28.4592 0.555726 28.3783 0.590305C28.2973 0.624883 28.2242 0.675498 28.1634 0.739098C28.0998 0.799988 28.0492 0.873124 28.0146 0.954099C27.9801 1.03507 27.9622 1.12221 27.9622 1.21026C27.9622 1.29831 27.9801 1.38545 28.0146 1.46642C28.0492 1.5474 28.0998 1.62053 28.1634 1.68142L28.368 1.92816L28.04 2.25627L27.7934 2.05022C27.7325 1.98661 27.6594 1.936 27.5785 1.90142C27.4975 1.86684 27.4104 1.84902 27.3224 1.84902C27.2344 1.84902 27.1473 1.86684 27.0664 1.90142C26.9854 1.936 26.9123 1.98661 26.8514 2.05022C26.7875 2.11114 26.7365 2.18444 26.7017 2.26565C26.6669 2.34687 26.649 2.43432 26.649 2.52269C26.649 2.61106 26.6669 2.69851 26.7017 2.77973C26.7365 2.86094 26.7875 2.93424 26.8514 2.99516L27.0561 3.24059L26.8095 3.48601C26.6504 3.64354 26.5361 3.84064 26.4785 4.05702C26.4208 4.27339 26.4219 4.50123 26.4815 4.71707L20.7419 10.459C19.5572 9.42213 17.7651 8.20288 15.8222 8.20288C14.9602 8.20288 14.0747 8.46537 13.1983 9.06384C11.2541 10.3933 11.6267 12.4079 10.4105 13.576C9.04614 14.8884 5.31636 13.8306 1.88308 17.2665C-1.5502 20.6998 -0.028383 25.4495 4.34292 29.6532C6.96413 32.3805 9.78474 34 12.3784 34C13.9409 34 15.4325 33.4068 16.7248 32.114C20.1581 28.6794 19.1007 24.9508 20.4139 23.5832C21.5815 22.3692 23.6346 22.7814 24.9649 20.835C26.9157 17.9831 25.0331 14.9671 23.5297 13.2479L29.2693 7.50598C29.7022 7.61623 30.1601 7.5178 30.4999 7.17788L30.7452 6.93114L30.9919 7.13719C31.0484 7.20091 31.1176 7.25205 31.1951 7.28731C31.2726 7.32258 31.3567 7.34119 31.4418 7.34193C31.6265 7.34068 31.8033 7.26665 31.9338 7.13588C31.9974 7.07499 32.048 7.00185 32.0825 6.92088C32.1171 6.8399 32.1349 6.75277 32.1349 6.66472C32.1349 6.57667 32.1171 6.48953 32.0825 6.40856C32.048 6.32758 31.9974 6.25444 31.9338 6.19356L31.7292 5.94682L32.0571 5.61871L32.3038 5.82476C32.3603 5.88848 32.4295 5.93962 32.5071 5.97489C32.5846 6.01015 32.6686 6.02876 32.7538 6.0295C32.9385 6.02825 33.1152 5.95422 33.2457 5.82345C33.3093 5.76256 33.3599 5.68942 33.3945 5.60845C33.429 5.52747 33.4468 5.44034 33.4468 5.35229C33.4468 5.26424 33.429 5.1771 33.3945 5.09613C33.3599 5.01515 33.3093 4.94202 33.2457 4.88113L33.0411 4.63439L33.6157 4.10154C33.7375 3.98075 33.8341 3.83703 33.9001 3.67867C33.966 3.52032 34 3.35046 34 3.1789C34 3.00735 33.966 2.83749 33.9001 2.67914C33.8341 2.52078 33.7375 2.37706 33.6157 2.25627L31.7278 0.367681C31.6106 0.248564 31.4703 0.154558 31.3156 0.0913833C31.1609 0.0282081 30.9949 -0.00281534 30.8279 0.000200573ZM30.7452 1.55937C30.8462 1.55937 30.9551 1.56462 31.0325 1.64074C31.1065 1.71815 31.1477 1.82109 31.1477 1.92816C31.1477 2.03523 31.1065 2.13817 31.0325 2.21558L28.4087 4.84044C28.3325 4.91702 28.2294 4.96081 28.1214 4.9625C28.0138 4.95958 27.9114 4.91542 27.8354 4.83913C27.7618 4.76179 27.7208 4.65912 27.7208 4.55236C27.7208 4.44561 27.7618 4.34294 27.8354 4.2656L30.4592 1.64074C30.5353 1.56462 30.6455 1.55937 30.7452 1.55937ZM32.0571 2.8718C32.1581 2.8718 32.267 2.87573 32.3444 2.95317C32.4187 3.03042 32.4601 3.13343 32.4601 3.24059C32.4601 3.34775 32.4187 3.45076 32.3444 3.52801L29.7206 6.15287C29.6441 6.22898 29.5412 6.27269 29.4333 6.27493C29.3259 6.27236 29.2235 6.22868 29.1473 6.15287C29.0734 6.07546 29.0321 5.97251 29.0321 5.86545C29.0321 5.75838 29.0734 5.65544 29.1473 5.57803L31.7711 2.95317C31.8472 2.87705 31.9574 2.8718 32.0571 2.8718ZM15.8222 10.0468C17.0816 10.0468 18.4119 10.9026 19.4299 11.7701L15.0429 16.1588C14.9458 16.1483 14.8566 16.1168 14.7569 16.1168C13.9314 16.1196 13.1405 16.4489 12.5568 17.0328C11.973 17.6168 11.6439 18.408 11.6411 19.2339C11.6439 20.0597 11.973 20.8509 12.5568 21.4349C13.1405 22.0188 13.9314 22.3481 14.7569 22.3509C15.5824 22.3481 16.3733 22.0188 16.957 21.4349C17.5408 20.8509 17.8699 20.0597 17.8727 19.2339C17.8727 19.1341 17.8412 19.0449 17.832 18.9464L22.2584 14.5183C23.3972 15.8386 24.6829 17.9621 23.4483 19.768C23.0469 20.3534 22.5418 20.5686 21.6445 20.8744C20.8547 21.1434 19.8668 21.4715 19.0613 22.3102C18.1771 23.2302 17.9803 24.4403 17.7494 25.7146C17.4581 27.3145 17.1315 29.123 15.4129 30.841C14.5103 31.7439 13.5158 32.1941 12.3784 32.1941C10.3882 32.1941 8.00054 30.8213 5.65483 28.3802C5.64193 28.366 5.62836 28.3524 5.61416 28.3395C3.19368 26.0152 1.82142 23.6371 1.80174 21.6553C1.78862 20.499 2.23992 19.4963 3.15432 18.579C4.87293 16.8597 6.68075 16.5316 8.27866 16.2415C9.55253 16.0105 10.7634 15.773 11.6818 14.8884C12.5135 14.0904 12.8428 13.1258 13.117 12.3449C13.4319 11.4498 13.6287 10.9879 14.2243 10.581C14.7333 10.2332 15.2607 10.0468 15.8222 10.0468ZM7.17141 21.3666C7.06367 21.3689 6.96109 21.4132 6.88541 21.4899L6.06546 22.3115C5.9903 22.3883 5.94821 22.4915 5.94821 22.5989C5.94821 22.7064 5.9903 22.8096 6.06546 22.8863L11.1072 27.93C11.262 28.0836 11.527 28.0836 11.6818 27.93L12.5017 27.1097C12.5759 27.0327 12.6173 26.9299 12.6173 26.823C12.6173 26.716 12.5759 26.6132 12.5017 26.5362L7.45872 21.4912C7.38304 21.4145 7.28046 21.3702 7.17272 21.3679L7.17141 21.3666Z" fill="black"/>
</svg>
