<svg width="34" height="34" viewBox="0 0 34 34" fill="none" xmlns="http://www.w3.org/2000/svg">
<path d="M34 5.3125C34 5.60026 33.8949 5.84928 33.6846 6.05957L28.9033 10.8408C28.693 11.0511 28.444 11.1563 28.1563 11.1563C27.8353 11.1563 27.5697 11.0345 27.3594 10.791L19.0254 19.125H20.1875C20.4753 19.125 20.7243 19.2301 20.9346 19.4404C21.1449 19.6507 21.25 19.8997 21.25 20.1875V22.3125C21.25 22.7552 21.167 23.1702 21.001 23.5576C20.835 23.945 20.6081 24.2826 20.3203 24.5703C20.0326 24.8581 19.695 25.085 19.3076 25.251C18.9202 25.417 18.5052 25.5 18.0625 25.5C17.7747 25.5 17.5257 25.6051 17.3154 25.8154C17.1051 26.0257 17 26.2747 17 26.5625C17 27.5918 16.8063 28.5547 16.4189 29.4512C16.0316 30.3477 15.5003 31.139 14.8252 31.8252C14.1501 32.5114 13.3643 33.0426 12.4678 33.4189C11.5713 33.7952 10.6029 33.9889 9.5625 34C8.24544 34 7.00586 33.751 5.84375 33.2529C4.68164 32.7549 3.66895 32.0687 2.80566 31.1943C1.94238 30.32 1.26172 29.3073 0.763672 28.1563C0.265625 27.0052 0.0110677 25.7656 0 24.4375C0 23.4082 0.193685 22.4453 0.581055 21.5488C0.968425 20.6523 1.49967 19.861 2.1748 19.1748C2.84993 18.4886 3.63574 17.9574 4.53223 17.5811C5.42871 17.2048 6.39714 17.0111 7.4375 17C7.72526 17 7.97428 16.8949 8.18457 16.6846C8.39486 16.4743 8.5 16.2253 8.5 15.9375C8.5 15.3509 8.61068 14.8031 8.83203 14.2939C9.05339 13.7848 9.35775 13.3311 9.74512 12.9326C10.1325 12.5342 10.5807 12.2298 11.0898 12.0195C11.599 11.8092 12.1523 11.6986 12.75 11.6875C13.4805 11.6875 14.1445 11.8535 14.7422 12.1855C15.3398 12.5176 15.849 12.9824 16.2695 13.5801L23.209 6.64063C22.9655 6.43034 22.8438 6.16471 22.8438 5.84375C22.8438 5.55599 22.9489 5.30697 23.1592 5.09668L27.9404 0.31543C28.1507 0.105143 28.3997 0 28.6875 0C28.9753 0 29.2243 0.105143 29.4346 0.31543L33.6846 4.56543C33.8949 4.77572 34 5.02474 34 5.3125ZM19.125 21.25H16.4688C16.181 21.25 15.932 21.1449 15.7217 20.9346L13.0654 18.2783C12.8551 18.068 12.75 17.819 12.75 17.5313C12.75 17.2435 12.8551 16.9945 13.0654 16.7842L14.709 15.1406C14.554 14.7422 14.2995 14.4212 13.9453 14.1777C13.5911 13.9342 13.1927 13.8125 12.75 13.8125C12.4512 13.8125 12.1745 13.8678 11.9199 13.9785C11.6654 14.0892 11.444 14.2386 11.2559 14.4268C11.0677 14.6149 10.9128 14.8418 10.791 15.1074C10.6693 15.373 10.6139 15.6497 10.625 15.9375C10.625 16.3802 10.542 16.7952 10.376 17.1826C10.21 17.57 9.98307 17.9076 9.69531 18.1953C9.40755 18.4831 9.06999 18.71 8.68262 18.876C8.29525 19.042 7.88021 19.125 7.4375 19.125C6.70703 19.125 6.02083 19.2633 5.37891 19.54C4.73698 19.8167 4.17253 20.1986 3.68555 20.6855C3.19857 21.1725 2.81673 21.737 2.54004 22.3789C2.26335 23.0208 2.125 23.707 2.125 24.4375C2.125 25.4668 2.31868 26.4297 2.70605 27.3262C3.09342 28.2227 3.62467 29.0085 4.2998 29.6836C4.97493 30.3587 5.76074 30.89 6.65723 31.2773C7.55371 31.6647 8.52214 31.8639 9.5625 31.875C10.293 31.875 10.9792 31.7367 11.6211 31.46C12.263 31.1833 12.8219 30.807 13.2979 30.3311C13.7738 29.8551 14.1556 29.2907 14.4434 28.6377C14.7311 27.9847 14.875 27.293 14.875 26.5625C14.875 26.1198 14.958 25.7048 15.124 25.3174C15.29 24.93 15.5169 24.5924 15.8047 24.3047C16.0924 24.0169 16.43 23.79 16.8174 23.624C17.2048 23.458 17.6198 23.375 18.0625 23.375C18.3503 23.375 18.5993 23.2699 18.8096 23.0596C19.0199 22.8493 19.125 22.6003 19.125 22.3125V21.25ZM16.4688 18.6934L25.8652 9.29688L24.7031 8.13477L15.3066 17.5313L16.4688 18.6934ZM28.1563 8.59961L31.4434 5.3125L28.6875 2.55664L25.4004 5.84375L28.1563 8.59961ZM5.89355 24.3877L7.3877 22.8936L11.1064 26.6123L9.6123 28.1064L5.89355 24.3877ZM9.08105 21.2002L10.5752 19.7061L14.2939 23.4248L12.7998 24.9189L9.08105 21.2002Z" fill="black"/>
</svg>
