<svg width="31" height="31" viewBox="0 0 31 31" fill="none" xmlns="http://www.w3.org/2000/svg">
<path d="M1 1L12.3333 12.3333M29.3333 1L18 12.3333" stroke="black" stroke-width="2" stroke-linecap="round" stroke-linejoin="round"/>
<path d="M15.1667 17.9999C22.9907 17.9999 29.3333 14.8286 29.3333 10.9166C29.3333 7.00457 22.9907 3.83325 15.1667 3.83325C7.34263 3.83325 1 7.00457 1 10.9166C1 14.8286 7.34263 17.9999 15.1667 17.9999Z" stroke="black" stroke-width="2" stroke-linecap="round" stroke-linejoin="round"/>
<path d="M8.08333 17.1501V28.3417M15.1667 18.0001V29.3334M15.1667 29.3334C11.4094 29.3334 7.80609 28.5871 5.14932 27.2588C2.49256 25.9304 1 24.1287 1 22.2501V10.9167M15.1667 29.3334C18.9239 29.3334 22.5272 28.5871 25.184 27.2588C27.8408 25.9304 29.3333 24.1287 29.3333 22.2501V10.9167M22.25 17.1501V28.3417" stroke="black" stroke-width="2" stroke-linecap="round" stroke-linejoin="round"/>
</svg>
