<svg width="34" height="34" viewBox="0 0 34 34" fill="none" xmlns="http://www.w3.org/2000/svg">
<path d="M14.2772 21.4424L12.4158 19.5673C12.2773 19.4318 12.0918 19.356 11.8988 19.356C11.7057 19.356 11.5202 19.4318 11.3817 19.5673C11.2472 19.7068 11.1719 19.8936 11.1719 20.0881C11.1719 20.2826 11.2472 20.4695 11.3817 20.609L13.2431 22.4841C13.5229 22.766 13.9852 22.766 14.2772 22.4841C14.5692 22.2022 14.5692 21.7365 14.2772 21.4424ZM9.97044 22.0429L11.8318 23.918C12.1117 24.1998 12.1117 24.6656 11.8318 24.9597C11.6933 25.0952 11.5079 25.171 11.3148 25.171C11.1217 25.171 10.9362 25.0952 10.7977 24.9597L8.93633 23.0846C8.80181 22.9451 8.72656 22.7582 8.72656 22.5637C8.72656 22.3692 8.80181 22.1824 8.93633 22.0429C9.07483 21.9074 9.26031 21.8316 9.45339 21.8316C9.64647 21.8316 9.83194 21.9074 9.97044 22.0429Z" fill="#111111"/>
<path d="M31.0055 0.510053C30.9627 0.408404 30.9003 0.316296 30.822 0.239032C30.7437 0.161769 30.651 0.100879 30.5492 0.0598686C30.4475 0.0188586 30.3386 -0.00146059 30.229 8.16514e-05C30.1194 0.0016239 30.0112 0.0249971 29.9106 0.0688548C29.4848 0.252687 29.2901 0.742908 29.4726 1.17185C29.5578 1.36794 29.7038 1.50275 29.8863 1.58854C30.0444 1.66207 30.1782 1.77237 30.2512 1.93169L30.4459 2.38269L29.3108 2.90968L29.1198 2.47093C29.0549 2.31057 29.0506 2.13182 29.1076 1.96846C29.1563 1.79688 29.1563 1.58854 29.0833 1.39245C29.0405 1.2908 28.9781 1.19869 28.8998 1.12143C28.8215 1.04417 28.7288 0.983275 28.627 0.942265C28.5252 0.901255 28.4164 0.880936 28.3068 0.882478C28.1972 0.88402 28.089 0.907393 27.9884 0.951251C27.5625 1.13508 27.3679 1.6253 27.5504 2.05425C27.6355 2.25033 27.7815 2.38514 27.964 2.47093C28.1222 2.54447 28.256 2.65477 28.329 2.81409L28.5285 3.27367L27.3813 3.80678L27.1866 3.35333C27.1516 3.27459 27.1324 3.1896 27.1303 3.10333C27.1282 3.01705 27.1432 2.93122 27.1745 2.85085C27.2392 2.6627 27.2305 2.45677 27.1501 2.27485C27.1073 2.1732 27.0449 2.08109 26.9666 2.00383C26.8883 1.92656 26.7956 1.86567 26.6938 1.82466C26.592 1.78365 26.4832 1.76333 26.3736 1.76487C26.264 1.76642 26.1558 1.78979 26.0552 1.83365C25.6294 2.01748 25.4347 2.5077 25.6172 2.93664C25.7024 3.13273 25.8484 3.26754 26.0308 3.35333C26.189 3.42686 26.3228 3.53716 26.3958 3.69648L26.599 4.16955L26.1391 4.38279C26.0205 4.45027 25.9177 4.54268 25.8377 4.65375C25.7577 4.76482 25.7023 4.89193 25.6754 5.02646C25.6486 5.16099 25.6507 5.29978 25.6818 5.43338C25.7129 5.56699 25.7722 5.69229 25.8557 5.80075L25.762 5.70639L15.3503 16.1946C15.0608 15.4538 14.9904 14.6443 15.1475 13.8641C15.3047 13.0838 15.6827 12.366 16.236 11.7974C16.9659 11.0498 17.0024 9.84875 16.2725 9.10116C15.5425 8.35357 14.3381 8.35358 13.6081 9.08891C12.4767 10.2287 11.7589 11.6381 11.4669 13.121C11.1384 14.7877 9.7393 16.001 8.06039 16.1603C6.04083 16.3442 4.0821 17.2143 2.54918 18.7708C-0.893813 22.2758 -0.845149 28.0482 2.67084 31.4797C6.13816 34.8745 11.6859 34.8377 15.1167 31.3817C16.5884 29.8903 17.4928 27.9251 17.6716 25.8299C17.7432 25.0098 18.0773 24.2354 18.6237 23.6231C19.17 23.0109 19.899 22.594 20.7009 22.4351C21.37 22.3003 22.027 22.0675 22.6596 21.7488C23.5843 21.2831 23.9614 20.1434 23.4991 19.212C23.2757 18.7641 22.8853 18.4237 22.4133 18.2652C21.9413 18.1067 21.4262 18.1431 20.9807 18.3663C20.4642 18.6288 19.898 18.7772 19.32 18.8015C18.7419 18.8258 18.1654 18.7255 17.629 18.5073L28.0455 8.01532C28.1453 8.10174 28.2618 8.16637 28.3876 8.20513C28.5135 8.24389 28.6459 8.25593 28.7766 8.2405C28.9073 8.22506 29.0334 8.18249 29.1469 8.11546C29.2604 8.04844 29.3589 7.95842 29.4361 7.8511L30.75 5.63285C30.896 5.38774 31.188 5.27744 31.4557 5.38774C32.1491 5.65736 32.9643 5.5103 33.4996 4.92203C34.1565 4.21121 34.1687 3.09596 33.5239 2.38515C32.9156 1.71232 32.0567 1.67678 31.2221 2.02606L31.0299 1.60079C30.965 1.44043 30.9607 1.26168 31.0177 1.09832C31.0907 0.914484 31.0907 0.706141 31.0055 0.510053ZM13.6324 16.1726C14.0047 16.3895 14.2724 16.7523 14.3673 17.1849L14.1677 17.3859C13.8636 17.6923 13.8636 18.1825 14.1677 18.4766L15.3722 19.6899C15.669 19.989 16.1399 19.9963 16.4343 19.712C16.7871 19.8076 17.3285 19.8848 17.6789 19.935L17.927 19.9718C17.9552 19.9774 17.9836 19.9815 18.0122 19.984C18.0402 19.9877 18.067 19.9902 18.0974 19.9963L18.1181 19.9988C18.3565 20.0257 19.0342 20.1029 19.8249 19.9473C19.876 19.9387 19.9271 19.9277 19.9807 19.9166C20.4272 19.826 20.9479 19.7206 21.1754 20.3762C21.2605 20.5968 21.1875 20.8542 20.8712 21.0625C20.6887 21.1851 20.2386 21.3567 20.0318 21.4057C19.0342 21.6385 18.3285 22.043 17.6716 22.766C16.7956 23.5994 16.2603 24.6044 16.0656 25.6951C15.9197 26.5285 15.7737 27.3496 15.433 28.1094C15.068 28.8938 14.5814 29.6046 13.9609 30.2297C13.2553 30.9527 12.428 31.492 11.5155 31.8596C10.6639 32.2028 9.67847 31.7984 9.34999 30.9405C9.277 30.7566 9.2405 30.5483 9.2405 30.3522C9.24415 30.0434 9.31714 29.6965 9.39379 29.3325C9.58844 28.4122 9.805 27.379 8.98501 26.553L6.24765 23.7955C5.03105 22.57 5.00672 20.5723 6.21115 19.3223L6.23549 19.2977C7.1966 18.3173 8.46187 17.8148 9.78797 17.7658C10.5788 17.729 11.2601 17.3246 11.6372 16.6996C11.9414 16.1971 12.501 15.9275 13.0728 15.9888C13.2675 16.0133 13.4621 16.0745 13.6324 16.1726ZM8.96068 27.9011C9.08234 28.0237 9.08234 28.2197 8.94851 28.33L7.65891 29.6291C7.53725 29.7517 7.34259 29.7517 7.22093 29.6291L4.28892 26.6756C4.16726 26.553 4.16726 26.3569 4.28892 26.2344L5.59069 24.9475C5.71235 24.825 5.907 24.825 6.02866 24.9475L8.96068 27.9011Z" fill="#111111"/>
</svg>
