<svg width="34" height="34" viewBox="0 0 34 34" fill="none" xmlns="http://www.w3.org/2000/svg">
<path d="M13.5 28.8333V20.3333M5 11.8333C5 11.0819 5.29851 10.3612 5.82986 9.82986C6.36122 9.29851 7.08189 9 7.83333 9H27.6667C28.4181 9 29.1388 9.29851 29.6701 9.82986C30.2015 10.3612 30.5 11.0819 30.5 11.8333V26C30.5 26.7514 30.2015 27.4721 29.6701 28.0035C29.1388 28.5348 28.4181 28.8333 27.6667 28.8333H7.83333C7.08189 28.8333 6.36122 28.5348 5.82986 28.0035C5.29851 27.4721 5 26.7514 5 26V11.8333Z" stroke="black" stroke-width="2" stroke-linecap="round" stroke-linejoin="round"/>
<path d="M12.083 9V20.3333H14.9163V9M21.9997 28.8333V20.3333M20.583 9V20.3333H23.4163V9" stroke="black" stroke-width="2" stroke-linecap="round" stroke-linejoin="round"/>
</svg>
