<svg width="134" height="33" viewBox="0 0 134 33" fill="none" xmlns="http://www.w3.org/2000/svg">
<path d="M0 21V0.349999H1.05V21H0ZM2.1 21V0.349999H3.15V21H2.1ZM4.2 21V0.349999H5.25V21H4.2ZM8.4 21V0.349999H11.55V21H8.4ZM12.6 21V0.349999H15.75V21H12.6ZM8.75 32.305C8.09667 32.305 7.53667 32.13 7.07 31.78C6.60333 31.4533 6.24167 30.975 5.985 30.345C5.72833 29.7383 5.6 29.0267 5.6 28.21C5.6 27.1367 5.76333 26.285 6.09 25.655C6.41667 25.025 6.81333 24.5817 7.28 24.325C7.74667 24.0917 8.21333 23.975 8.68 23.975C9.17 23.975 9.63667 24.1033 10.08 24.36C10.5467 24.5933 10.885 24.92 11.095 25.34L10.465 25.83L10.36 25.935L10.325 25.865C10.325 25.795 10.3133 25.725 10.29 25.655C10.2433 25.6083 10.1733 25.5267 10.08 25.41C9.87 25.1767 9.66 25.0133 9.45 24.92C9.24 24.8267 8.98333 24.78 8.68 24.78C8.05 24.78 7.525 25.025 7.105 25.515C6.70833 26.0283 6.51 26.8567 6.51 28C6.51 29.12 6.70833 29.9833 7.105 30.59C7.50167 31.1967 8.05 31.5 8.75 31.5C9.00667 31.5 9.275 31.4533 9.555 31.36C9.85833 31.29 10.1033 31.1733 10.29 31.01V29.085H8.82V28.28H11.13V31.465C10.36 32.025 9.56667 32.305 8.75 32.305ZM16.8164 21V0.349999H17.8664V21H16.8164ZM18.9164 21V0.349999H22.0664V21H18.9164ZM23.1164 21V0.349999H24.1664V21H23.1164ZM27.3164 21V0.349999H30.4664V21H27.3164ZM31.5164 21V0.349999H32.5664V21H31.5164ZM23.0114 31.395H24.6214V24.815H23.1164V24.045H27.1414V24.815H25.5314V31.395H27.2114V32.165H23.0114V31.395ZM33.6328 21V0.349999H34.6828V21H33.6328ZM35.7328 21V0.349999H36.7828V21H35.7328ZM37.8328 21V0.349999H38.8828V21H37.8328ZM42.0328 21V0.349999H45.1828V21H42.0328ZM46.2328 21V0.349999H49.3828V21H46.2328ZM42.3828 32.305C41.7295 32.305 41.1695 32.13 40.7028 31.78C40.2361 31.4533 39.8745 30.975 39.6178 30.345C39.3611 29.7383 39.2328 29.0267 39.2328 28.21C39.2328 27.1367 39.3961 26.285 39.7228 25.655C40.0495 25.025 40.4461 24.5817 40.9128 24.325C41.3795 24.0917 41.8461 23.975 42.3128 23.975C42.8028 23.975 43.2695 24.1033 43.7128 24.36C44.1795 24.5933 44.5178 24.92 44.7278 25.34L44.0978 25.83L43.9928 25.935L43.9578 25.865C43.9578 25.795 43.9461 25.725 43.9228 25.655C43.8761 25.6083 43.8061 25.5267 43.7128 25.41C43.5028 25.1767 43.2928 25.0133 43.0828 24.92C42.8728 24.8267 42.6161 24.78 42.3128 24.78C41.6828 24.78 41.1578 25.025 40.7378 25.515C40.3411 26.0283 40.1428 26.8567 40.1428 28C40.1428 29.12 40.3411 29.9833 40.7378 30.59C41.1345 31.1967 41.6828 31.5 42.3828 31.5C42.6395 31.5 42.9078 31.4533 43.1878 31.36C43.4911 31.29 43.7361 31.1733 43.9228 31.01V29.085H42.4528V28.28H44.7628V31.465C43.9928 32.025 43.1995 32.305 42.3828 32.305ZM50.4492 21V0.349999H51.4992V21H50.4492ZM52.5492 21V0.349999H55.6992V21H52.5492ZM56.7492 21V0.349999H57.7992V21H56.7492ZM60.9492 21V0.349999H61.9992V21H60.9492ZM63.0492 21V0.349999H66.1992V21H63.0492ZM56.2242 24.045H58.5342C59.4209 24.045 60.0859 24.22 60.5292 24.57C60.9959 24.92 61.2292 25.41 61.2292 26.04C61.2292 26.4367 61.1242 26.7983 60.9142 27.125C60.6809 27.4517 60.3776 27.685 60.0042 27.825C60.4709 27.9883 60.8442 28.2567 61.1242 28.63C61.4042 29.0267 61.5442 29.4467 61.5442 29.89C61.5442 30.59 61.2876 31.15 60.7742 31.57C60.2842 31.9667 59.5259 32.165 58.4992 32.165H56.2242V24.045ZM58.3942 27.405C59.6776 27.405 60.3192 26.9733 60.3192 26.11C60.3192 25.7367 60.1676 25.4333 59.8642 25.2C59.5842 24.9433 59.1409 24.815 58.5342 24.815H57.0992V27.405H58.3942ZM58.6742 31.36C59.9342 31.36 60.5642 30.8467 60.5642 29.82C60.5642 28.7233 59.8526 28.175 58.4292 28.175H57.0992V31.36H58.6742ZM67.2656 21V0.349999H70.4156V21H67.2656ZM71.4656 21V0.349999H72.5156V21H71.4656ZM73.5656 21V0.349999H76.7156V21H73.5656ZM77.7656 21V0.349999H78.8156V21H77.7656ZM81.9656 21V0.349999H83.0156V21H81.9656ZM75.6656 32.305C74.7323 32.305 74.0206 31.9433 73.5306 31.22C73.0173 30.4967 72.7606 29.47 72.7606 28.14C72.7606 26.8567 73.0173 25.8417 73.5306 25.095C74.044 24.3717 74.7556 24.01 75.6656 24.01C76.5756 24.01 77.2873 24.3717 77.8006 25.095C78.314 25.8417 78.5706 26.8567 78.5706 28.14C78.5706 29.47 78.314 30.4967 77.8006 31.22C77.3106 31.9433 76.599 32.305 75.6656 32.305ZM75.6656 31.5C76.2956 31.5 76.774 31.22 77.1006 30.66C77.4506 30.0767 77.6256 29.2367 77.6256 28.14C77.6256 27.1133 77.4506 26.2967 77.1006 25.69C76.7506 25.1067 76.2723 24.815 75.6656 24.815C75.059 24.815 74.5806 25.1067 74.2306 25.69C73.8806 26.2967 73.7056 27.1133 73.7056 28.14C73.7056 29.2367 73.869 30.0767 74.1956 30.66C74.5456 31.22 75.0356 31.5 75.6656 31.5ZM84.082 21V0.349999H87.232V21H84.082ZM88.282 21V0.349999H89.332V21H88.282ZM90.382 21V0.349999H91.432V21H90.382ZM94.582 21V0.349999H95.632V21H94.582ZM96.682 21V0.349999H99.832V21H96.682ZM93.777 29.785H91.152L90.347 32.165H89.437L92.412 23.905H92.517L95.527 32.165H94.582L93.777 29.785ZM93.532 29.085L92.482 26.005L91.397 29.085H93.532ZM100.898 21V0.349999H104.048V21H100.898ZM105.098 21V0.349999H106.148V21H105.098ZM107.198 21V0.349999H108.248V21H107.198ZM109.298 21V0.349999H112.448V21H109.298ZM115.598 21V0.349999H116.648V21H115.598ZM106.778 24.045H109.158C110.092 24.045 110.768 24.255 111.188 24.675C111.632 25.0717 111.853 25.6433 111.853 26.39C111.853 26.8567 111.702 27.3 111.398 27.72C111.095 28.14 110.698 28.42 110.208 28.56L112.098 32.165H111.083L109.263 28.595H107.688V32.165H106.778V24.045ZM109.263 27.79C109.823 27.79 110.243 27.6617 110.523 27.405C110.78 27.1717 110.908 26.8333 110.908 26.39C110.908 25.9467 110.78 25.585 110.523 25.305C110.243 25.0483 109.823 24.92 109.263 24.92H107.688V27.79H109.263ZM117.715 21V0.349999H118.765V21H117.715ZM119.815 21V0.349999H120.865V21H119.815ZM121.915 21V0.349999H125.065V21H121.915ZM128.215 21V0.349999H129.265V21H128.215ZM130.315 21V0.349999H133.465V21H130.315ZM123.56 24.045H125.45C126.127 24.045 126.652 24.1383 127.025 24.325C127.422 24.5117 127.76 24.7917 128.04 25.165C128.577 25.865 128.845 26.8567 128.845 28.14C128.798 29.47 128.495 30.4733 127.935 31.15C127.375 31.85 126.5 32.1883 125.31 32.165H123.56V24.045ZM125.24 31.465C127.037 31.465 127.935 30.38 127.935 28.21C127.935 27.1133 127.737 26.2733 127.34 25.69C126.92 25.1067 126.267 24.815 125.38 24.815H124.435V31.465H125.24Z" fill="#FF7417"/>
</svg>
