<svg width="25" height="31" viewBox="0 0 25 31" fill="none" xmlns="http://www.w3.org/2000/svg">
<path d="M9.76506 8.93481L1.27356 20.5373C1.07375 20.8103 0.978205 21.1457 1.00419 21.4829C1.03017 21.8202 1.17597 22.137 1.41523 22.3761L2.57264 23.535C2.81539 23.7775 3.13788 23.9236 3.48024 23.9463C3.8226 23.9689 4.16155 23.8666 4.43414 23.6582L15.5592 15.1667" stroke="black" stroke-width="2" stroke-linecap="round" stroke-linejoin="round"/>
<path d="M17.5572 28.1631C16.1405 27.2083 14.5425 26.4999 12.5988 26.4999C9.68333 26.4999 7.03416 29.8376 4.09883 29.3333C1.1635 28.8289 0.167579 24.5605 1.97383 22.9583" stroke="black" stroke-width="2" stroke-linecap="round" stroke-linejoin="round"/>
<path d="M16.848 15.1667C20.76 15.1667 23.9313 11.9953 23.9313 8.08333C23.9313 4.17132 20.76 1 16.848 1C12.936 1 9.76465 4.17132 9.76465 8.08333C9.76465 11.9953 12.936 15.1667 16.848 15.1667Z" stroke="black" stroke-width="2" stroke-linecap="round" stroke-linejoin="round"/>
</svg>
